<svg xmlns="http://www.w3.org/2000/svg" viewBox="0 0 120 120" fill="none">
  <defs>
    <linearGradient id="friendGrad" x1="0%" y1="0%" x2="100%" y2="100%">
      <stop offset="0%" stop-color="#667eea"/>
      <stop offset="100%" stop-color="#764ba2"/>
    </linearGradient>
    <linearGradient id="friendGrad2" x1="100%" y1="0%" x2="0%" y2="100%">
      <stop offset="0%" stop-color="#f093fb"/>
      <stop offset="100%" stop-color="#f5576c"/>
    </linearGradient>
    <linearGradient id="friendGrad3" x1="0%" y1="100%" x2="100%" y2="0%">
      <stop offset="0%" stop-color="#4facfe"/>
      <stop offset="100%" stop-color="#00f2fe"/>
    </linearGradient>
  </defs>
  <circle cx="60" cy="60" r="50" fill="url(#friendGrad)" opacity="0.1"/>
  <circle cx="60" cy="60" r="40" fill="url(#friendGrad)" opacity="0.15"/>
  <circle cx="60" cy="60" r="30" fill="url(#friendGrad)" opacity="0.2"/>
  <circle cx="45" cy="45" r="18" fill="url(#friendGrad)" opacity="0.9"/>
  <circle cx="45" cy="45" r="12" fill="white" opacity="0.3"/>
  <circle cx="42" cy="42" r="4" fill="white" opacity="0.8"/>
  <circle cx="50" cy="42" r="4" fill="white" opacity="0.8"/>
  <path d="M38 52 Q45 58 52 52" stroke="white" stroke-width="2" stroke-linecap="round" fill="none" opacity="0.8"/>
  <circle cx="75" cy="55" r="15" fill="url(#friendGrad2)" opacity="0.9"/>
  <circle cx="75" cy="55" r="10" fill="white" opacity="0.3"/>
  <circle cx="72" cy="52" r="3" fill="white" opacity="0.8"/>
  <circle cx="78" cy="52" r="3" fill="white" opacity="0.8"/>
  <path d="M70 60 Q75 65 80 60" stroke="white" stroke-width="2" stroke-linecap="round" fill="none" opacity="0.8"/>
  <ellipse cx="60" cy="90" rx="25" ry="12" fill="url(#friendGrad3)" opacity="0.7"/>
  <ellipse cx="60" cy="90" rx="18" ry="8" fill="white" opacity="0.2"/>
  <circle cx="30" cy="75" r="6" fill="url(#friendGrad3)" opacity="0.6"/>
  <circle cx="90" cy="75" r="6" fill="url(#friendGrad2)" opacity="0.6"/>
  <circle cx="95" cy="35" r="8" fill="url(#friendGrad3)" opacity="0.8"/>
  <path d="M93 33 L97 37 M97 33 L93 37" stroke="white" stroke-width="1.5" stroke-linecap="round"/>
</svg>
