<?xml version="1.0" standalone="no"?><!DOCTYPE svg PUBLIC "-//W3C//DTD SVG 1.1//EN" "http://www.w3.org/Graphics/SVG/1.1/DTD/svg11.dtd"><svg height="1024" node-id="1" sillyvg="true" template-height="1024" template-width="1024" version="1.1" viewBox="0 0 1024 1024" width="1024" xmlns="http://www.w3.org/2000/svg" xmlns:xlink="http://www.w3.org/1999/xlink"><defs node-id="30"></defs><path d="M 329.32 286.60 C 331.52 286.40 333.79 286.38 336.00 286.53 C 347.90 287.34 358.67 294.83 366.18 303.69 C 379.95 319.94 381.00 332.86 379.35 353.16 C 384.89 352.34 389.87 352.63 395.17 354.46 C 395.85 354.69 396.51 354.93 397.17 355.20 C 397.84 355.46 398.49 355.74 399.14 356.04 C 399.78 356.33 400.42 356.64 401.05 356.97 C 401.69 357.30 402.31 357.64 402.92 358.00 C 403.54 358.36 404.14 358.73 404.74 359.12 C 405.34 359.51 405.92 359.91 406.50 360.33 C 407.07 360.75 407.64 361.18 408.19 361.63 C 408.75 362.07 409.29 362.53 409.82 363.00 C 410.35 363.48 410.87 363.96 411.38 364.46 C 411.89 364.96 412.38 365.47 412.87 366.00 C 413.35 366.52 413.82 367.05 414.27 367.60 C 414.73 368.15 415.17 368.70 415.60 369.27 C 416.02 369.84 416.44 370.42 416.84 371.01 C 417.24 371.60 417.62 372.20 417.99 372.80 C 418.36 373.41 418.71 374.03 419.05 374.66 C 419.39 375.28 419.71 375.91 420.02 376.56 C 423.60 383.98 424.54 392.41 421.71 400.25 C 418.35 409.57 411.56 414.75 402.88 418.87 C 426.73 436.06 443.15 465.31 448.67 493.93 C 452.33 512.91 453.54 535.82 442.22 552.56 L 508.77 534.60 C 518.68 531.85 530.49 527.17 540.35 525.61 C 545.77 524.75 551.52 524.92 557.01 524.76 C 568.46 524.49 579.92 524.30 591.38 524.22 C 624.91 523.67 658.45 523.40 692.00 523.39 C 694.18 511.38 694.62 498.56 695.77 486.39 L 702.42 418.52 C 703.35 409.27 703.37 399.57 705.20 390.46 C 708.81 386.79 713.34 383.75 717.32 380.46 C 722.44 376.24 727.43 371.49 732.91 367.76 C 734.70 366.54 736.62 365.50 738.70 364.84 C 741.65 363.91 744.25 363.70 747.06 365.10 C 747.86 366.33 747.98 367.04 747.93 368.51 C 747.53 380.99 745.84 393.83 744.78 406.29 L 736.41 497.60 C 735.62 506.53 734.52 515.43 733.90 524.38 C 742.81 526.56 751.63 529.22 760.51 531.55 L 810.13 544.33 C 819.85 546.86 829.55 549.47 839.23 552.14 C 844.17 553.54 849.47 554.75 854.19 556.79 C 855.72 557.45 856.82 557.89 857.33 559.57 C 858.34 562.88 858.31 577.33 856.63 580.21 C 852.50 582.15 821.48 580.97 814.11 581.07 C 813.47 591.22 813.44 601.41 813.09 611.58 C 812.21 631.52 811.52 651.47 811.00 671.43 L 804.98 834.20 C 804.71 841.11 804.75 874.92 803.10 878.32 C 802.75 878.56 802.46 878.92 802.05 879.04 C 799.04 879.92 787.41 879.38 783.60 879.45 L 735.59 880.41 L 541.50 884.93 C 541.46 887.62 541.99 892.03 540.10 894.06 C 535.87 894.86 521.27 895.38 518.00 893.27 C 517.19 888.67 517.88 883.48 517.94 878.81 C 518.03 872.35 517.95 865.88 517.94 859.42 L 517.91 772.81 C 517.33 760.13 517.90 747.17 517.87 734.46 C 510.49 734.51 502.98 735.38 495.59 735.81 L 463.34 737.41 C 459.66 740.91 456.49 744.40 452.14 747.14 C 430.61 760.68 394.89 763.11 369.84 766.10 C 371.67 790.76 375.64 815.13 376.56 839.90 C 387.99 841.45 399.41 842.50 410.79 844.52 C 428.81 847.73 446.17 852.84 463.48 858.69 C 468.79 857.43 473.62 856.98 478.74 859.42 C 483.46 861.67 487.30 866.09 489.04 871.00 C 490.52 875.19 490.20 879.60 488.11 883.52 C 485.85 887.77 481.85 890.75 477.22 891.97 C 471.91 893.36 465.34 892.65 460.64 889.71 C 455.81 886.70 453.95 882.48 452.84 877.16 C 427.55 872.26 401.60 866.24 375.70 866.10 C 375.45 872.12 374.13 877.32 371.70 882.82 C 374.96 886.90 377.75 891.01 378.54 896.30 C 379.27 901.24 378.14 906.13 375.13 910.14 C 371.73 914.67 366.45 917.61 360.86 918.39 C 355.20 919.17 348.69 917.98 344.12 914.39 C 340.65 911.66 338.76 907.86 338.40 903.48 C 337.85 896.99 339.86 892.12 344.05 887.27 C 338.10 881.94 336.15 875.57 334.77 867.91 C 318.32 871.92 294.82 880.09 279.95 888.11 C 279.13 892.82 278.07 897.06 275.00 900.89 C 271.61 905.13 266.65 907.29 261.31 907.75 C 257.01 908.12 252.69 907.11 249.44 904.17 C 246.50 901.52 245.05 897.75 244.95 893.84 C 244.94 893.51 244.94 893.18 244.95 892.85 C 244.96 892.52 244.98 892.18 245.00 891.85 C 245.03 891.52 245.06 891.19 245.10 890.86 C 245.15 890.53 245.19 890.21 245.25 889.88 C 245.31 889.55 245.38 889.23 245.45 888.90 C 245.53 888.58 245.61 888.26 245.70 887.94 C 245.79 887.62 245.89 887.30 245.99 886.99 C 246.10 886.68 246.21 886.36 246.33 886.05 C 246.46 885.75 246.58 885.44 246.72 885.14 C 246.86 884.84 247.00 884.54 247.15 884.24 C 247.31 883.95 247.46 883.66 247.63 883.37 C 247.80 883.08 247.97 882.80 248.15 882.52 C 248.33 882.24 248.52 881.97 248.71 881.70 C 248.91 881.43 249.11 881.17 249.31 880.91 C 249.52 880.65 249.73 880.39 249.95 880.14 C 250.17 879.90 250.40 879.65 250.63 879.42 C 255.36 874.67 260.62 873.87 266.98 873.95 C 286.10 860.38 308.91 850.56 331.21 843.59 C 328.33 818.41 325.98 793.14 322.05 768.09 C 298.76 768.40 253.90 770.07 233.66 758.79 C 227.83 755.55 222.29 750.80 220.58 744.09 C 218.90 737.51 220.70 730.64 223.99 724.89 C 220.88 713.51 216.83 702.33 213.52 691.00 L 186.52 598.07 L 177.46 566.90 C 173.44 553.18 169.17 539.29 167.54 525.03 C 166.26 513.78 165.82 496.64 173.59 487.35 C 181.67 477.68 194.44 475.25 206.30 474.37 C 205.85 472.03 205.54 469.66 205.38 467.28 C 204.92 459.84 207.87 454.09 212.62 448.67 C 201.32 446.37 191.91 443.08 184.19 433.94 C 177.67 426.21 175.27 415.95 176.22 406.02 C 177.28 394.82 181.66 384.80 190.51 377.67 C 200.88 369.30 211.66 367.62 224.61 369.07 C 220.57 359.67 217.51 351.34 218.75 340.89 C 220.25 328.22 226.52 316.47 236.64 308.62 C 246.17 301.22 258.37 297.16 270.45 298.69 C 281.31 300.07 292.25 306.02 298.91 314.75 C 299.64 312.88 300.47 311.05 301.39 309.27 C 302.32 307.49 303.35 305.77 304.46 304.10 C 310.72 294.68 318.15 288.84 329.32 286.60 Z M 187.52 482.24 C 200.29 488.83 205.45 502.11 209.61 515.12 C 214.79 531.29 218.37 547.97 222.13 564.51 C 228.87 594.15 234.81 623.81 240.58 653.65 C 243.23 666.94 245.76 680.26 248.18 693.59 C 249.40 700.22 251.19 707.24 251.69 713.93 C 256.00 713.34 260.28 712.75 264.62 712.41 C 269.99 711.79 275.37 711.25 280.76 710.80 C 273.24 702.14 268.94 691.28 266.79 680.12 C 264.97 679.77 263.66 679.55 262.19 678.40 C 259.90 675.00 256.03 636.94 254.82 629.32 C 250.24 600.43 241.66 571.70 239.44 542.50 C 239.17 539.04 239.01 535.57 238.98 532.09 C 238.95 528.61 239.03 525.14 239.24 521.67 C 239.45 518.20 239.78 514.74 240.23 511.30 C 240.68 507.85 241.25 504.42 241.94 501.02 C 242.07 500.34 242.21 499.67 242.35 499.00 C 231.42 498.56 221.66 496.10 213.95 487.84 C 212.08 485.84 208.26 478.58 206.89 478.04 L 206.19 478.18 C 199.70 479.00 193.70 479.98 187.52 482.24 Z M 709.14 392.83 C 706.16 409.78 705.71 427.65 703.91 444.80 C 702.23 460.91 700.65 477.04 699.15 493.17 C 698.19 503.28 696.76 513.66 696.83 523.83 C 699.34 525.39 701.84 526.94 704.23 528.69 C 708.41 531.40 712.78 533.81 717.11 536.28 C 718.51 527.20 718.93 517.87 719.76 508.71 L 724.53 456.40 C 726.74 433.46 729.55 410.59 731.71 387.64 C 732.06 383.92 733.63 376.38 732.95 372.96 C 725.17 379.83 717.04 386.15 709.14 392.83 Z" fill="#000000" fill-rule="nonzero" node-id="32" stroke="none" target-height="632.791" target-width="692.51904" target-x="165.824" target-y="286.383"></path><path d="M 650.30 581.25 L 809.97 581.26 C 808.60 640.43 806.12 699.60 804.08 758.75 L 801.09 843.32 C 800.71 853.94 800.67 864.58 800.09 875.20 C 789.97 875.61 779.82 875.41 769.70 875.61 C 746.45 876.00 723.22 876.61 699.99 877.44 C 687.37 877.51 674.75 878.13 662.13 878.36 C 621.87 879.03 581.61 879.94 541.36 881.10 C 540.91 836.23 540.95 791.37 541.47 746.50 L 541.46 581.70 C 577.71 581.95 614.04 581.54 650.30 581.25 Z" fill="#fefefe" fill-rule="nonzero" node-id="34" stroke="none" target-height="299.8531" target-width="269.05566" target-x="540.9113" target-y="581.248"></path><path d="M 570.57 605.55 C 574.95 605.43 584.65 604.08 587.99 606.53 C 588.45 607.97 588.16 608.25 587.66 609.64 C 583.53 609.97 573.56 611.34 570.49 608.75 C 570.04 607.36 570.23 606.99 570.57 605.55 Z" fill="#000000" fill-rule="nonzero" node-id="36" stroke="none" target-height="7.258972" target-width="18.408997" target-x="570.041" target-y="604.08"></path><path d="M 567.14 730.50 C 570.95 730.36 574.76 730.27 578.57 730.20 C 580.94 730.19 585.23 729.78 587.00 731.52 C 587.13 732.79 587.01 732.91 586.39 734.05 C 581.28 734.44 575.52 734.78 570.44 734.22 C 568.77 734.03 567.85 733.85 566.78 732.53 L 567.14 730.50 Z" fill="#000000" fill-rule="nonzero" node-id="38" stroke="none" target-height="4.9970703" target-width="20.346008" target-x="566.782" target-y="729.7819"></path><path d="M 299.78 442.68 C 310.56 441.31 320.78 444.60 330.61 448.62 C 330.64 449.00 330.68 449.38 330.71 449.75 C 330.92 452.55 331.26 454.83 333.19 456.99 C 334.62 457.62 334.90 457.54 336.42 457.43 C 341.27 457.08 340.43 462.57 343.56 464.59 C 345.33 465.72 347.69 465.24 349.61 464.94 C 358.58 471.25 366.85 478.61 374.89 486.04 C 371.01 490.52 368.06 495.99 364.92 501.03 C 358.16 511.87 351.96 522.55 346.41 534.08 C 342.38 542.45 338.93 551.06 335.00 559.47 C 325.44 555.51 315.99 551.18 307.14 545.80 C 303.90 543.84 296.52 536.85 292.98 537.24 L 292.56 537.99 C 292.68 539.34 292.89 540.53 293.83 541.57 C 297.87 546.05 307.54 550.87 313.04 553.78 C 348.27 572.45 382.07 581.00 421.85 581.88 C 421.13 587.79 419.36 594.69 414.71 598.72 C 409.54 603.18 401.41 602.98 395.37 600.57 C 393.29 599.74 390.87 598.13 388.65 597.92 C 386.56 606.57 385.01 613.82 378.99 620.67 C 375.70 623.46 372.18 625.53 368.05 626.79 C 358.10 629.83 349.22 628.37 340.17 623.58 C 338.67 628.90 337.26 634.12 334.75 639.08 C 329.04 650.37 319.51 659.13 307.43 663.08 C 300.93 665.20 294.39 666.31 288.05 663.05 C 284.74 658.73 284.19 643.07 283.42 637.28 C 283.18 635.44 282.99 633.46 281.42 632.25 C 280.48 632.40 280.56 632.17 280.14 632.89 C 277.34 637.66 282.89 661.06 284.30 667.30 C 281.19 671.33 276.39 675.19 271.25 676.16 C 269.08 676.57 267.78 676.22 265.97 675.04 C 264.42 672.61 259.84 632.54 258.73 625.89 C 254.76 602.25 248.60 578.87 245.33 555.12 C 241.15 524.72 242.89 489.09 262.32 463.82 C 272.00 451.24 284.15 444.66 299.78 442.68 Z" fill="#fefefe" fill-rule="nonzero" node-id="40" stroke="none" target-height="235.26099" target-width="180.69803" target-x="241.14798" target-y="441.313"></path><path d="M 358.21 411.63 C 367.02 410.59 377.40 412.13 385.76 414.99 C 408.39 422.72 424.12 443.34 434.19 464.17 C 443.88 484.24 451.01 511.63 445.42 533.82 C 443.75 540.45 440.46 546.29 438.25 552.70 L 438.06 553.27 C 433.08 554.74 427.96 556.16 422.83 556.98 C 419.17 557.56 409.68 556.51 407.33 558.76 C 406.39 564.43 407.44 571.66 407.47 577.55 C 381.17 574.25 364.01 571.25 339.26 561.07 C 343.69 549.00 349.20 537.08 355.17 525.70 C 358.18 519.38 362.29 513.59 366.02 507.68 C 369.96 501.44 373.66 495.05 377.55 488.77 C 379.70 490.87 381.86 493.00 383.49 495.53 C 385.25 498.24 386.74 502.29 389.00 504.53 C 389.77 505.29 390.00 505.25 391.01 505.25 C 392.08 504.13 392.33 502.89 392.57 501.40 C 394.41 489.79 392.22 470.08 384.94 460.53 C 371.97 443.50 353.83 463.03 346.43 460.77 C 345.12 460.37 344.96 459.97 344.28 458.87 C 343.17 449.00 357.74 445.68 361.84 438.47 C 362.62 437.09 362.44 436.93 362.01 435.48 C 357.77 432.95 342.87 452.22 336.70 453.02 C 335.40 452.55 335.31 452.63 334.64 451.45 C 335.09 441.63 344.55 437.91 349.22 430.64 C 349.34 429.44 349.37 429.44 348.69 428.43 C 342.28 427.36 334.86 442.77 330.39 445.48 L 329.68 445.13 C 329.32 444.54 329.14 443.97 329.00 443.30 C 327.80 437.63 330.94 431.34 334.14 426.80 C 334.49 426.30 334.85 425.81 335.22 425.33 C 335.59 424.85 335.98 424.37 336.37 423.91 C 336.77 423.45 337.18 422.99 337.60 422.55 C 338.01 422.11 338.44 421.68 338.88 421.26 C 339.32 420.83 339.77 420.42 340.23 420.03 C 340.69 419.63 341.17 419.24 341.64 418.87 C 342.12 418.49 342.61 418.13 343.11 417.78 C 343.61 417.43 344.12 417.09 344.63 416.77 C 345.15 416.44 345.67 416.13 346.20 415.83 C 346.73 415.53 347.27 415.25 347.82 414.98 C 348.36 414.70 348.91 414.45 349.47 414.20 C 350.03 413.96 350.59 413.73 351.16 413.51 C 351.73 413.30 352.31 413.10 352.89 412.91 C 353.47 412.72 354.05 412.55 354.64 412.39 C 355.23 412.24 355.82 412.09 356.42 411.97 C 357.01 411.84 357.61 411.73 358.21 411.63 Z" fill="#fefefe" fill-rule="nonzero" node-id="42" stroke="none" target-height="166.962" target-width="123.207" target-x="327.8" target-y="410.592"></path><path d="M 636.68 561.25 L 760.43 561.12 C 791.40 561.10 822.53 560.55 853.48 561.45 L 853.38 577.03 C 822.64 577.76 791.79 577.27 761.05 577.25 L 628.88 577.45 C 556.43 577.86 483.99 577.89 411.54 577.54 L 411.52 561.63 C 486.56 560.59 561.63 561.81 636.68 561.25 Z" fill="#fefefe" fill-rule="nonzero" node-id="44" stroke="none" target-height="17.341675" target-width="441.964" target-x="411.516" target-y="560.547"></path><path d="M 364.31 766.23 C 364.70 766.23 365.29 766.41 365.68 766.49 C 367.44 768.79 371.22 817.66 371.84 825.14 C 372.20 829.47 371.96 838.73 373.71 842.50 C 374.83 844.92 379.48 844.58 381.78 844.78 C 408.02 847.05 435.06 852.37 459.67 861.94 C 456.70 865.33 455.14 868.57 453.59 872.76 C 446.19 871.63 438.89 869.78 431.52 868.45 C 417.09 865.88 402.57 863.98 387.96 862.75 C 384.01 862.45 378.91 861.62 375.09 862.53 C 374.72 862.62 373.73 862.93 373.47 863.20 C 371.66 865.15 370.69 874.22 369.58 877.31 C 368.77 879.55 367.65 881.51 366.40 883.52 C 360.78 885.60 356.00 886.17 350.06 885.23 C 337.03 879.95 342.36 870.33 336.76 864.11 C 333.57 862.76 304.92 872.96 299.71 874.97 C 292.62 877.71 285.82 881.20 278.67 883.79 C 276.90 880.45 274.79 878.01 272.16 875.34 C 285.66 866.56 299.79 859.51 314.76 853.61 C 321.54 850.93 328.80 849.01 335.33 845.82 C 335.41 839.62 334.16 832.91 333.48 826.74 C 332.31 815.87 331.05 805.02 329.67 794.18 C 328.50 785.48 326.92 776.75 326.28 768.00 C 338.98 767.60 351.63 766.88 364.31 766.23 Z" fill="#fefefe" fill-rule="nonzero" node-id="46" stroke="none" target-height="119.94403" target-width="187.508" target-x="272.16" target-y="766.22797"></path><path d="M 279.64 715.30 C 281.28 715.02 282.79 714.67 284.40 715.28 C 288.51 716.83 292.01 720.50 295.81 722.74 C 306.66 729.15 319.51 732.48 331.82 734.63 C 372.71 741.77 415.62 739.26 456.93 737.74 C 444.26 752.25 415.65 755.69 397.48 758.85 C 383.26 760.95 368.85 761.69 354.51 762.53 C 333.34 763.96 312.14 764.41 290.92 763.87 C 278.09 763.59 264.86 763.27 252.24 760.72 C 245.34 759.32 238.19 756.91 232.41 752.79 C 228.40 749.93 225.09 746.04 224.35 741.03 C 223.73 736.77 224.65 732.17 227.37 728.78 C 237.03 716.77 265.36 716.86 279.64 715.30 Z" fill="#fefefe" fill-rule="nonzero" node-id="48" stroke="none" target-height="49.743652" target-width="233.20702" target-x="223.726" target-y="714.669"></path><path d="M 523.51 581.90 L 537.38 581.91 C 538.24 645.83 537.22 709.82 537.42 773.74 L 537.26 851.19 C 537.21 864.07 538.15 877.73 536.90 890.53 L 521.69 890.69 L 521.76 737.73 L 523.51 581.90 Z" fill="#fefefe" fill-rule="nonzero" node-id="50" stroke="none" target-height="308.789" target-width="16.549988" target-x="521.689" target-y="581.9"></path><path d="M 323.70 359.21 C 339.05 370.81 353.66 378.44 373.36 379.67 C 373.82 389.11 374.08 398.16 372.25 407.51 C 361.09 406.81 350.56 407.12 341.08 413.76 C 331.43 420.53 326.19 430.19 324.15 441.62 L 317.93 439.82 C 311.97 438.57 305.85 437.67 299.79 438.52 C 297.56 433.37 295.45 428.17 294.23 422.68 C 289.90 423.93 284.94 424.62 280.55 423.33 C 276.16 422.03 272.29 418.82 270.30 414.69 C 270.09 414.26 269.91 413.82 269.75 413.38 C 269.59 412.93 269.46 412.48 269.35 412.02 C 269.23 411.56 269.15 411.10 269.08 410.63 C 269.02 410.17 268.98 409.69 268.96 409.22 C 268.95 408.75 268.95 408.28 268.99 407.81 C 269.02 407.34 269.08 406.87 269.16 406.40 C 269.24 405.94 269.35 405.48 269.48 405.02 C 269.61 404.57 269.76 404.12 269.94 403.68 C 271.22 400.46 273.61 397.96 276.81 396.61 C 281.18 394.76 285.83 395.28 290.10 397.09 C 295.79 394.61 301.25 392.07 306.17 388.22 C 315.37 381.00 322.32 370.96 323.70 359.21 Z" fill="#fefefe" fill-rule="nonzero" node-id="52" stroke="none" target-height="82.412994" target-width="105.13803" target-x="268.946" target-y="359.212"></path><path d="M 339.79 383.16 C 340.05 383.19 340.83 383.27 341.05 383.36 C 342.14 383.80 342.37 384.62 342.67 385.66 C 343.84 389.73 345.10 398.69 343.03 402.38 C 342.87 402.34 342.70 402.32 342.53 402.27 C 341.61 402.01 341.08 401.58 340.65 400.71 C 338.70 396.69 338.33 387.32 339.79 383.16 Z" fill="#000000" fill-rule="nonzero" node-id="54" stroke="none" target-height="19.212067" target-width="6.770996" target-x="338.333" target-y="383.16498"></path><path d="M 356.66 377.96 C 357.79 378.50 357.83 378.28 358.40 379.50 C 358.03 381.23 357.58 383.50 356.67 385.02 C 355.92 386.28 354.91 386.28 353.61 386.65 C 352.86 385.87 351.58 384.61 351.16 383.61 C 350.59 382.23 350.83 381.80 351.35 380.52 C 352.92 379.08 354.69 378.60 356.66 377.96 Z" fill="#000000" fill-rule="nonzero" node-id="56" stroke="none" target-height="8.688049" target-width="7.814087" target-x="350.58896" target-y="377.95798"></path><path d="M 327.81 384.34 C 328.69 384.95 328.49 384.67 328.97 385.47 C 329.37 386.14 329.31 386.73 329.02 387.47 C 328.04 390.01 324.32 391.97 322.06 393.26 C 321.31 392.68 320.87 392.11 320.33 391.32 C 320.37 390.79 320.36 390.40 320.58 389.88 C 321.60 387.46 325.61 385.57 327.81 384.34 Z" fill="#000000" fill-rule="nonzero" node-id="58" stroke="none" target-height="8.920959" target-width="9.038025" target-x="320.33" target-y="384.342"></path><path d="M 281.60 405.06 C 282.29 405.00 282.98 404.92 283.67 404.92 C 285.43 404.90 286.81 405.38 288.02 406.59 C 287.62 407.66 287.38 407.81 286.49 408.55 C 284.54 408.56 280.60 409.04 279.16 407.87 C 279.48 406.55 280.60 405.88 281.60 405.06 Z" fill="#000000" fill-rule="nonzero" node-id="60" stroke="none" target-height="4.130005" target-width="8.858002" target-x="279.158" target-y="404.905"></path><path d="M 276.54 410.20 C 278.37 409.97 280.49 409.53 282.32 409.72 C 283.39 409.83 283.49 409.89 284.22 410.72 L 283.67 412.37 C 281.90 412.38 280.20 412.65 278.43 412.60 C 277.26 411.82 277.16 411.49 276.54 410.20 Z" fill="#000000" fill-rule="nonzero" node-id="62" stroke="none" target-height="3.1169739" target-width="7.6779785" target-x="276.544" target-y="409.52805"></path><path d="M 733.29 528.63 C 738.75 529.73 744.12 531.56 749.51 532.99 L 789.00 543.39 L 824.06 552.41 C 829.82 553.95 835.99 555.21 841.49 557.51 L 497.88 557.33 C 486.62 557.27 475.37 557.27 464.12 557.35 C 457.23 557.37 450.00 557.78 443.19 556.76 C 465.86 550.25 488.74 544.47 511.49 538.22 C 521.46 535.48 532.03 531.09 542.20 529.59 C 546.68 528.93 551.65 529.37 556.19 529.44 C 547.94 533.47 537.05 534.75 529.97 540.83 C 528.19 542.36 526.65 544.43 526.52 546.84 C 526.41 548.83 527.34 551.58 528.83 552.94 C 530.01 554.01 531.45 554.34 532.99 554.42 C 543.88 554.95 555.20 553.93 566.12 553.73 C 593.23 553.32 620.33 552.63 647.43 551.67 L 695.10 550.60 C 706.71 550.41 718.56 550.64 730.10 549.23 C 732.65 542.67 732.64 535.57 733.29 528.63 Z" fill="#fefefe" fill-rule="nonzero" node-id="64" stroke="none" target-height="29.148987" target-width="398.30005" target-x="443.185" target-y="528.629"></path><path d="M 463.08 581.75 L 519.23 581.86 C 519.32 592.24 519.04 602.63 518.92 613.01 C 513.83 611.29 508.67 609.82 503.44 608.59 C 498.22 607.36 492.94 606.38 487.62 605.65 C 470.80 603.23 453.99 603.72 437.08 604.47 C 434.30 597.94 430.19 593.43 425.45 588.28 L 425.56 581.81 C 438.07 581.90 450.57 581.88 463.08 581.75 Z" fill="#fefefe" fill-rule="nonzero" node-id="66" stroke="none" target-height="31.268005" target-width="93.87396" target-x="425.44604" target-y="581.745"></path><path d="M 640.08 527.76 C 658.30 527.39 676.55 527.52 694.77 527.44 C 700.58 531.51 706.39 535.65 712.71 538.91 C 676.77 539.99 640.81 539.85 604.88 541.18 C 581.43 542.50 556.79 542.41 533.17 543.13 C 540.61 539.50 561.04 530.55 568.56 528.92 C 575.21 527.49 583.53 528.33 590.41 528.24 L 640.08 527.76 Z" fill="#fefefe" fill-rule="nonzero" node-id="68" stroke="none" target-height="15.737976" target-width="179.53796" target-x="533.169" target-y="527.395"></path><path d="M 741.29 368.57 C 742.07 368.60 742.81 368.69 743.57 368.78 C 743.68 369.09 743.83 369.40 743.90 369.72 C 744.27 371.54 742.88 379.95 742.69 382.41 C 740.15 413.22 737.44 444.01 734.56 474.78 L 729.17 527.21 C 728.70 531.80 729.07 536.63 728.31 541.17 C 728.20 541.83 727.98 542.20 727.52 542.68 L 726.32 542.00 L 721.44 539.60 C 721.15 525.76 724.03 508.24 725.42 494.08 L 735.00 397.91 C 735.35 394.18 736.56 372.00 737.83 370.10 C 738.72 368.76 739.83 368.87 741.29 368.57 Z" fill="#fefefe" fill-rule="nonzero" node-id="70" stroke="none" target-height="174.11298" target-width="23.113037" target-x="721.15295" target-y="368.56903"></path><path d="M 695.19 543.25 C 701.68 543.05 712.90 541.60 718.84 543.60 C 720.38 544.12 721.88 545.08 723.29 545.88 L 558.88 549.75 C 553.10 549.98 538.19 551.30 533.61 550.37 C 532.36 550.12 531.99 549.69 531.33 548.66 L 531.64 547.94 C 533.01 547.21 534.25 547.00 535.80 546.90 C 554.50 545.72 573.62 546.05 592.36 545.64 L 695.19 543.25 Z" fill="#fefefe" fill-rule="nonzero" node-id="72" stroke="none" target-height="9.70697" target-width="191.96094" target-x="531.334" target-y="541.598"></path><path d="M 367.89 458.10 C 368.15 458.08 368.42 458.06 368.68 458.04 C 373.23 457.73 376.70 458.49 380.10 461.68 C 387.99 469.09 388.73 485.08 388.82 495.15 C 387.15 492.70 385.29 490.47 383.38 488.22 C 374.40 479.14 364.48 471.59 354.83 463.29 C 358.96 461.04 363.40 459.46 367.89 458.10 Z" fill="#fefefe" fill-rule="nonzero" node-id="74" stroke="none" target-height="37.41797" target-width="33.99002" target-x="354.82697" target-y="457.72903"></path><path d="M 426.48 625.14 C 453.91 624.85 482.03 632.07 507.10 642.78 C 510.94 644.43 515.01 645.73 518.64 647.81 C 519.34 649.43 519.02 651.26 518.90 652.99 C 493.43 638.86 463.59 631.26 434.69 629.37 C 432.08 629.20 428.00 629.29 426.20 627.27 L 426.48 625.14 Z" fill="#fefefe" fill-rule="nonzero" node-id="76" stroke="none" target-height="28.142029" target-width="93.13696" target-x="426.2" target-y="624.845"></path><path d="M 581.66 106.71 C 584.75 106.24 588.45 106.37 591.60 106.47 C 609.45 107.05 628.05 113.98 640.28 127.31 C 653.04 141.23 655.79 153.94 654.98 172.20 C 656.40 171.50 657.85 170.90 659.35 170.39 C 660.85 169.88 662.37 169.46 663.92 169.15 C 678.31 166.09 695.41 169.73 707.67 177.73 C 708.26 178.12 708.84 178.53 709.41 178.94 C 709.99 179.36 710.55 179.80 711.10 180.24 C 711.65 180.69 712.19 181.15 712.72 181.62 C 713.24 182.09 713.76 182.58 714.26 183.08 C 714.77 183.58 715.26 184.09 715.74 184.61 C 716.22 185.13 716.69 185.66 717.14 186.21 C 717.59 186.75 718.03 187.31 718.46 187.88 C 718.89 188.44 719.30 189.02 719.70 189.60 C 720.10 190.19 720.48 190.79 720.85 191.39 C 721.22 192.00 721.57 192.61 721.91 193.23 C 722.25 193.86 722.58 194.49 722.88 195.12 C 723.19 195.76 723.49 196.41 723.76 197.06 C 724.04 197.71 724.30 198.37 724.54 199.04 C 724.79 199.70 725.02 200.37 725.23 201.05 C 725.44 201.73 725.64 202.41 725.82 203.09 C 725.99 203.78 726.16 204.47 726.30 205.16 C 728.51 215.91 726.88 228.59 720.81 237.87 C 727.46 239.91 733.23 242.28 738.73 246.65 C 748.42 254.38 753.45 264.49 754.71 276.75 C 756.47 293.76 749.95 310.88 739.30 324.00 C 729.17 336.48 715.24 346.72 698.84 348.37 C 688.92 349.36 679.78 346.40 672.05 340.16 C 671.83 349.68 670.04 357.92 664.16 365.63 C 653.06 380.16 632.45 388.65 614.78 390.98 C 600.19 392.90 585.66 390.59 573.81 381.52 C 563.79 372.60 560.38 363.83 558.14 350.87 C 552.53 359.42 545.47 365.55 535.97 369.46 C 522.79 374.89 507.14 374.22 494.06 368.76 C 482.28 363.85 472.20 354.38 467.37 342.48 C 463.11 331.98 464.07 322.77 468.47 312.55 C 457.32 310.13 448.01 308.73 438.16 302.43 C 423.77 293.23 414.00 278.17 410.50 261.52 C 410.37 260.88 410.25 260.24 410.13 259.59 C 410.01 258.95 409.91 258.30 409.81 257.66 C 409.70 257.01 409.61 256.36 409.53 255.71 C 409.44 255.06 409.37 254.41 409.30 253.76 C 409.23 253.11 409.17 252.46 409.12 251.81 C 409.07 251.15 409.02 250.50 408.99 249.85 C 408.95 249.19 408.92 248.54 408.90 247.88 C 408.88 247.23 408.87 246.58 408.87 245.92 C 408.87 245.27 408.87 244.61 408.88 243.96 C 408.90 243.30 408.92 242.65 408.95 242.00 C 408.98 241.34 409.01 240.69 409.06 240.03 C 409.11 239.38 409.16 238.73 409.22 238.08 C 409.28 237.43 409.35 236.78 409.43 236.12 C 409.51 235.47 409.59 234.83 409.69 234.18 C 409.78 233.53 409.88 232.88 409.99 232.24 C 410.10 231.59 410.22 230.95 410.35 230.31 C 410.47 229.66 410.61 229.02 410.75 228.38 C 410.89 227.74 411.04 227.11 411.20 226.47 C 411.35 225.84 411.52 225.20 411.69 224.57 C 411.87 223.94 412.05 223.31 412.24 222.69 C 412.43 222.06 412.62 221.43 412.83 220.81 C 413.03 220.19 413.24 219.57 413.46 218.96 C 413.68 218.34 413.91 217.72 414.15 217.11 C 414.38 216.50 414.62 215.89 414.87 215.29 C 415.12 214.68 415.38 214.08 415.65 213.48 C 415.91 212.89 416.18 212.29 416.46 211.70 C 416.74 211.11 417.03 210.52 417.33 209.93 C 417.62 209.35 417.92 208.77 418.23 208.19 C 418.54 207.61 418.86 207.04 419.18 206.47 C 419.50 205.90 419.83 205.34 420.17 204.78 C 420.51 204.21 420.85 203.66 421.20 203.10 C 421.55 202.55 421.91 202.00 422.28 201.46 C 431.96 186.76 447.27 175.44 464.68 171.99 C 482.27 168.52 496.15 171.08 510.93 180.99 C 510.08 163.41 514.68 147.25 526.03 133.57 C 540.10 116.61 560.17 108.73 581.66 106.71 Z M 470.51 308.67 C 472.00 307.30 474.39 304.90 476.61 305.00 C 476.76 305.01 476.91 305.06 477.05 305.09 C 477.47 306.08 477.67 306.49 477.22 307.58 C 476.55 309.19 474.45 310.76 473.40 312.20 C 469.00 318.31 467.50 327.72 469.00 334.96 C 471.23 345.78 479.38 355.44 488.53 361.25 C 499.70 368.37 514.18 371.02 527.12 368.09 C 537.42 365.77 548.21 359.17 553.77 349.99 C 555.60 346.97 556.56 341.90 560.00 340.57 C 560.62 340.75 561.25 340.73 561.59 341.32 C 562.49 342.87 562.10 346.51 562.22 348.35 C 562.79 357.52 565.09 365.20 570.59 372.60 C 579.15 382.05 589.03 386.90 601.85 387.58 C 620.70 388.58 642.55 381.04 656.55 368.34 C 663.25 362.26 667.75 353.40 668.06 344.29 C 668.18 340.80 665.24 333.98 666.84 331.36 C 670.38 333.03 673.41 336.13 676.58 338.44 C 686.28 345.48 696.75 346.03 707.83 342.04 C 724.14 336.17 738.15 322.35 745.42 306.75 C 751.27 294.20 752.95 280.03 748.13 266.88 C 744.91 258.08 738.21 249.78 729.65 245.62 C 725.04 243.38 719.00 243.25 714.70 240.67 C 715.78 237.17 718.43 234.04 719.95 230.67 C 720.26 229.99 720.54 229.30 720.81 228.61 C 721.08 227.91 721.32 227.21 721.55 226.50 C 721.78 225.79 721.99 225.08 722.17 224.35 C 722.36 223.63 722.52 222.91 722.67 222.18 C 722.81 221.45 722.94 220.71 723.04 219.97 C 723.15 219.24 723.23 218.50 723.29 217.75 C 723.36 217.01 723.40 216.27 723.42 215.52 C 723.44 214.78 723.44 214.03 723.41 213.29 C 723.39 212.54 723.35 211.80 723.29 211.06 C 723.22 210.31 723.14 209.57 723.03 208.84 C 722.93 208.10 722.80 207.37 722.65 206.63 C 722.50 205.90 722.34 205.18 722.15 204.46 C 721.96 203.74 721.75 203.02 721.52 202.31 C 721.30 201.60 721.05 200.90 720.78 200.21 C 720.51 199.51 720.22 198.82 719.92 198.15 C 719.61 197.47 719.28 196.80 718.94 196.14 C 713.28 185.24 703.29 178.37 691.73 174.85 C 681.95 171.88 670.76 170.68 661.12 174.56 C 657.83 175.89 654.01 178.02 650.52 178.49 C 650.74 173.46 651.61 168.45 651.69 163.43 C 651.89 150.94 646.07 139.69 637.73 130.66 C 625.68 117.61 608.21 111.01 590.63 110.50 C 588.30 110.44 585.97 110.57 583.64 110.70 C 562.49 112.67 543.49 119.09 529.52 135.93 C 520.80 146.43 513.29 163.68 514.59 177.57 C 514.96 181.41 516.48 185.42 516.41 189.23 L 515.66 189.88 C 512.64 189.53 506.42 182.99 503.12 180.97 C 484.40 169.50 457.49 174.34 440.90 187.50 C 439.94 188.25 439.00 189.02 438.08 189.82 C 437.16 190.61 436.26 191.43 435.38 192.28 C 434.50 193.12 433.65 193.98 432.81 194.87 C 431.98 195.75 431.16 196.66 430.37 197.58 C 429.58 198.51 428.81 199.46 428.07 200.42 C 427.33 201.38 426.61 202.37 425.92 203.37 C 425.22 204.37 424.55 205.38 423.91 206.42 C 423.27 207.45 422.65 208.50 422.06 209.57 C 421.47 210.63 420.90 211.71 420.37 212.80 C 419.83 213.90 419.32 215.00 418.84 216.12 C 418.36 217.24 417.91 218.37 417.48 219.51 C 417.06 220.65 416.66 221.80 416.29 222.96 C 415.93 224.12 415.59 225.29 415.28 226.47 C 414.97 227.65 414.69 228.83 414.44 230.02 C 414.19 231.21 413.97 232.41 413.78 233.61 C 413.59 234.82 413.43 236.02 413.31 237.23 C 411.39 254.73 415.39 273.30 426.65 287.13 C 437.96 301.02 453.22 306.83 470.51 308.67 Z" fill="#000000" fill-rule="nonzero" node-id="78" stroke="none" target-height="286.665" target-width="347.59937" target-x="408.86664" target-y="106.23801"></path><path d="M 460.22 409.19 C 460.46 409.12 460.70 409.06 460.95 409.01 C 461.19 408.95 461.44 408.91 461.68 408.86 C 461.93 408.82 462.17 408.79 462.42 408.76 C 462.67 408.73 462.92 408.70 463.17 408.68 C 463.42 408.67 463.67 408.65 463.92 408.65 C 464.17 408.64 464.41 408.64 464.66 408.65 C 464.91 408.66 465.16 408.67 465.41 408.69 C 465.66 408.71 465.91 408.73 466.16 408.76 C 466.40 408.79 466.65 408.83 466.90 408.87 C 467.14 408.92 467.39 408.97 467.63 409.02 C 467.88 409.08 468.12 409.14 468.36 409.20 C 468.60 409.27 468.84 409.35 469.07 409.42 C 469.31 409.50 469.55 409.59 469.78 409.68 C 470.01 409.77 470.24 409.86 470.47 409.97 C 470.70 410.07 470.92 410.17 471.15 410.29 C 471.37 410.40 471.59 410.52 471.81 410.64 C 472.02 410.77 472.24 410.89 472.45 411.03 C 472.66 411.16 472.86 411.30 473.07 411.45 C 473.27 411.59 473.47 411.74 473.67 411.89 C 473.87 412.05 474.06 412.21 474.25 412.37 C 474.44 412.53 474.62 412.70 474.80 412.87 C 474.98 413.05 475.16 413.22 475.33 413.40 C 475.50 413.59 475.67 413.77 475.83 413.96 C 475.99 414.15 476.15 414.34 476.30 414.54 C 476.46 414.74 476.61 414.94 476.75 415.14 C 476.89 415.35 477.03 415.55 477.16 415.77 C 477.30 415.98 477.42 416.19 477.55 416.41 C 477.67 416.63 477.79 416.85 477.90 417.07 C 478.01 417.29 478.12 417.52 478.22 417.75 C 478.32 417.98 478.41 418.21 478.50 418.44 C 478.59 418.67 478.67 418.91 478.75 419.15 C 478.83 419.38 478.90 419.62 478.97 419.86 C 479.03 420.10 479.09 420.35 479.15 420.59 C 479.20 420.83 479.25 421.08 479.29 421.33 C 479.33 421.57 479.37 421.82 479.40 422.07 C 479.43 422.32 479.45 422.56 479.47 422.81 C 479.49 423.06 479.50 423.31 479.50 423.56 C 479.51 423.81 479.51 424.06 479.50 424.31 C 479.50 424.56 479.48 424.81 479.46 425.06 C 479.44 425.31 479.42 425.55 479.39 425.80 C 479.36 426.05 479.32 426.30 479.28 426.54 C 479.23 426.79 479.18 427.03 479.13 427.28 C 479.07 427.52 479.01 427.76 478.94 428.00 C 478.88 428.24 478.80 428.48 478.73 428.72 C 478.65 428.95 478.56 429.19 478.47 429.42 C 478.38 429.65 478.28 429.88 478.18 430.11 C 478.08 430.34 477.97 430.57 477.86 430.79 C 477.75 431.01 477.63 431.23 477.50 431.45 C 477.38 431.67 477.25 431.88 477.12 432.09 C 476.98 432.30 476.84 432.51 476.70 432.71 C 476.56 432.91 476.41 433.11 476.25 433.31 C 476.10 433.51 475.94 433.70 475.77 433.89 C 475.61 434.08 475.44 434.26 475.27 434.44 C 475.10 434.62 474.92 434.80 474.74 434.97 C 474.56 435.14 474.37 435.31 474.18 435.47 C 473.99 435.63 473.80 435.79 473.60 435.94 C 473.40 436.10 473.20 436.24 473.00 436.39 C 472.79 436.53 472.59 436.67 472.37 436.80 C 472.16 436.93 471.95 437.06 471.73 437.18 C 471.51 437.31 471.29 437.42 471.07 437.53 C 470.85 437.65 470.62 437.75 470.39 437.85 C 470.16 437.95 469.93 438.05 469.70 438.14 C 469.46 438.23 469.23 438.31 468.99 438.39 C 468.75 438.46 468.52 438.54 468.27 438.60 C 468.03 438.67 467.79 438.73 467.55 438.78 C 467.31 438.83 467.06 438.88 466.81 438.92 C 466.57 438.96 466.32 439.00 466.07 439.03 C 465.83 439.06 465.58 439.08 465.33 439.10 C 465.08 439.12 464.83 439.13 464.58 439.14 C 464.33 439.14 464.08 439.14 463.83 439.13 C 463.59 439.13 463.34 439.11 463.09 439.09 C 462.84 439.07 462.59 439.05 462.34 439.02 C 462.10 438.99 461.85 438.95 461.61 438.90 C 461.36 438.86 461.11 438.81 460.87 438.76 C 460.63 438.70 460.39 438.64 460.15 438.57 C 459.91 438.51 459.67 438.43 459.43 438.35 C 459.20 438.27 458.96 438.19 458.73 438.10 C 458.50 438.01 458.27 437.91 458.04 437.81 C 457.81 437.71 457.59 437.60 457.36 437.49 C 457.14 437.38 456.92 437.26 456.70 437.13 C 456.49 437.01 456.27 436.88 456.06 436.75 C 455.85 436.61 455.65 436.47 455.44 436.33 C 455.24 436.19 455.04 436.04 454.84 435.88 C 454.65 435.73 454.46 435.57 454.27 435.41 C 454.08 435.24 453.89 435.08 453.71 434.90 C 453.54 434.73 453.36 434.55 453.19 434.37 C 453.02 434.19 452.85 434.01 452.69 433.82 C 452.53 433.63 452.37 433.43 452.21 433.24 C 452.06 433.04 451.91 432.84 451.77 432.63 C 451.63 432.43 451.49 432.22 451.36 432.01 C 451.22 431.80 451.10 431.59 450.97 431.37 C 450.85 431.15 450.73 430.93 450.62 430.71 C 450.51 430.49 450.41 430.26 450.31 430.03 C 450.21 429.80 450.11 429.57 450.02 429.34 C 449.93 429.11 449.85 428.87 449.77 428.63 C 449.69 428.40 449.62 428.16 449.56 427.92 C 449.49 427.68 449.43 427.44 449.38 427.19 C 449.32 426.95 449.27 426.71 449.23 426.46 C 449.19 426.21 449.15 425.97 449.12 425.72 C 449.09 425.47 449.07 425.22 449.05 424.98 C 449.04 424.73 449.02 424.48 449.02 424.23 C 449.01 423.98 449.01 423.73 449.02 423.48 C 449.03 423.23 449.04 422.98 449.06 422.73 C 449.08 422.48 449.10 422.24 449.13 421.99 C 449.16 421.74 449.20 421.49 449.24 421.25 C 449.29 421.00 449.34 420.76 449.39 420.52 C 449.45 420.27 449.51 420.03 449.58 419.79 C 449.64 419.55 449.72 419.31 449.80 419.08 C 449.87 418.84 449.96 418.60 450.05 418.37 C 450.14 418.14 450.23 417.91 450.34 417.68 C 450.44 417.45 450.55 417.23 450.66 417.01 C 450.77 416.78 450.89 416.56 451.01 416.35 C 451.14 416.13 451.26 415.92 451.40 415.71 C 451.53 415.50 451.67 415.29 451.81 415.09 C 451.96 414.88 452.11 414.68 452.26 414.49 C 452.42 414.29 452.57 414.10 452.74 413.91 C 452.90 413.72 453.07 413.54 453.24 413.36 C 453.41 413.18 453.59 413.00 453.77 412.83 C 453.95 412.66 454.14 412.49 454.33 412.33 C 454.51 412.16 454.71 412.01 454.90 411.85 C 455.10 411.70 455.30 411.55 455.51 411.41 C 455.71 411.27 455.92 411.13 456.13 410.99 C 456.34 410.86 456.55 410.73 456.77 410.61 C 456.99 410.49 457.21 410.37 457.43 410.26 C 457.65 410.15 457.88 410.04 458.11 409.94 C 458.34 409.84 458.57 409.75 458.80 409.66 C 459.03 409.57 459.27 409.48 459.50 409.41 C 459.74 409.33 459.98 409.26 460.22 409.19 Z M 465.21 434.88 C 465.38 434.87 465.56 434.85 465.74 434.82 C 465.92 434.80 466.09 434.77 466.27 434.73 C 466.44 434.70 466.62 434.66 466.79 434.62 C 466.96 434.58 467.14 434.53 467.31 434.48 C 467.48 434.43 467.65 434.38 467.82 434.32 C 467.99 434.26 468.16 434.20 468.32 434.13 C 468.49 434.07 468.65 434.00 468.81 433.92 C 468.98 433.85 469.14 433.77 469.30 433.69 C 469.45 433.60 469.61 433.52 469.76 433.43 C 469.92 433.34 470.07 433.25 470.22 433.15 C 470.37 433.05 470.52 432.95 470.66 432.85 C 470.81 432.74 470.95 432.63 471.09 432.52 C 471.23 432.41 471.37 432.30 471.50 432.18 C 471.64 432.06 471.77 431.94 471.90 431.82 C 472.03 431.69 472.15 431.57 472.27 431.44 C 472.40 431.31 472.52 431.17 472.63 431.04 C 472.75 430.90 472.86 430.76 472.97 430.62 C 473.08 430.48 473.18 430.33 473.29 430.19 C 473.39 430.04 473.49 429.89 473.58 429.74 C 473.68 429.59 473.77 429.44 473.86 429.28 C 473.94 429.13 474.03 428.97 474.11 428.81 C 474.19 428.65 474.26 428.49 474.34 428.32 C 474.41 428.16 474.48 427.99 474.54 427.83 C 474.60 427.66 474.66 427.49 474.72 427.32 C 474.78 427.15 474.83 426.98 474.88 426.81 C 474.92 426.64 474.97 426.47 475.01 426.29 C 475.05 426.12 475.08 425.94 475.11 425.77 C 475.14 425.59 475.17 425.41 475.19 425.24 C 475.22 425.06 475.23 424.88 475.25 424.70 C 475.26 424.52 475.27 424.35 475.28 424.17 C 475.28 423.99 475.28 423.81 475.28 423.63 C 475.28 423.45 475.27 423.27 475.26 423.10 C 475.24 422.92 475.23 422.74 475.21 422.56 C 475.19 422.39 475.16 422.21 475.13 422.03 C 475.10 421.86 475.07 421.68 475.03 421.51 C 474.99 421.33 474.95 421.16 474.91 420.99 C 474.86 420.81 474.81 420.64 474.75 420.47 C 474.70 420.30 474.64 420.13 474.58 419.96 C 474.52 419.80 474.45 419.63 474.38 419.47 C 474.31 419.30 474.24 419.14 474.16 418.98 C 474.08 418.82 474.00 418.66 473.91 418.50 C 473.82 418.35 473.73 418.19 473.64 418.04 C 473.55 417.89 473.45 417.74 473.35 417.59 C 473.25 417.44 473.14 417.30 473.04 417.16 C 472.93 417.02 472.82 416.88 472.70 416.74 C 472.59 416.60 472.47 416.47 472.35 416.34 C 472.23 416.20 472.10 416.08 471.98 415.95 C 471.85 415.82 471.72 415.70 471.59 415.58 C 471.45 415.46 471.32 415.35 471.18 415.24 C 471.04 415.12 470.90 415.01 470.75 414.91 C 470.61 414.80 470.46 414.70 470.31 414.60 C 470.17 414.50 470.02 414.41 469.86 414.32 C 469.71 414.23 469.55 414.14 469.39 414.05 C 469.24 413.97 469.08 413.89 468.92 413.81 C 468.75 413.74 468.59 413.67 468.43 413.60 C 468.26 413.53 468.09 413.47 467.93 413.41 C 467.76 413.35 467.59 413.29 467.42 413.24 C 467.24 413.19 467.07 413.14 466.90 413.10 C 466.73 413.05 466.55 413.01 466.38 412.98 C 466.20 412.94 466.03 412.91 465.85 412.88 C 465.67 412.86 465.50 412.84 465.32 412.82 C 465.14 412.80 464.96 412.79 464.78 412.78 C 464.60 412.77 464.43 412.76 464.25 412.76 C 464.07 412.76 463.89 412.76 463.71 412.77 C 463.47 412.78 463.22 412.80 462.98 412.83 C 462.73 412.86 462.49 412.89 462.25 412.93 C 462.01 412.98 461.77 413.03 461.53 413.09 C 461.29 413.15 461.06 413.21 460.82 413.29 C 460.59 413.36 460.36 413.44 460.13 413.53 C 459.90 413.63 459.67 413.72 459.45 413.83 C 459.23 413.93 459.01 414.05 458.80 414.16 C 458.58 414.28 458.37 414.41 458.17 414.55 C 457.96 414.68 457.76 414.82 457.56 414.97 C 457.37 415.11 457.17 415.27 456.99 415.43 C 456.80 415.59 456.62 415.75 456.44 415.92 C 456.27 416.09 456.10 416.27 455.94 416.45 C 455.77 416.64 455.62 416.83 455.46 417.02 C 455.31 417.21 455.17 417.41 455.03 417.61 C 454.89 417.82 454.76 418.03 454.64 418.24 C 454.51 418.45 454.40 418.66 454.29 418.88 C 454.18 419.10 454.07 419.33 453.98 419.55 C 453.88 419.78 453.80 420.01 453.72 420.24 C 453.64 420.47 453.56 420.71 453.50 420.94 C 453.44 421.18 453.38 421.42 453.33 421.66 C 453.28 421.90 453.24 422.14 453.21 422.39 C 453.18 422.63 453.15 422.87 453.14 423.12 C 453.12 423.36 453.11 423.61 453.11 423.86 C 453.11 424.10 453.12 424.35 453.14 424.59 C 453.16 424.84 453.18 425.08 453.21 425.32 C 453.25 425.57 453.29 425.81 453.33 426.05 C 453.38 426.29 453.44 426.53 453.51 426.77 C 453.57 427.00 453.64 427.24 453.72 427.47 C 453.80 427.70 453.89 427.93 453.99 428.16 C 454.08 428.38 454.19 428.61 454.30 428.82 C 454.41 429.04 454.52 429.26 454.65 429.47 C 454.77 429.68 454.90 429.89 455.04 430.09 C 455.18 430.30 455.33 430.49 455.48 430.69 C 455.63 430.88 455.79 431.07 455.95 431.25 C 456.12 431.43 456.29 431.61 456.46 431.78 C 456.64 431.95 456.82 432.12 457.00 432.28 C 457.19 432.44 457.38 432.59 457.58 432.74 C 457.78 432.88 457.98 433.02 458.19 433.16 C 458.39 433.29 458.60 433.42 458.82 433.54 C 459.03 433.65 459.25 433.77 459.47 433.87 C 459.69 433.98 459.92 434.07 460.15 434.16 C 460.38 434.25 460.61 434.33 460.84 434.41 C 461.08 434.48 461.31 434.55 461.55 434.61 C 461.79 434.67 462.03 434.72 462.27 434.76 C 462.51 434.80 462.76 434.84 463.00 434.86 C 463.25 434.89 463.49 434.91 463.74 434.92 C 463.98 434.93 464.23 434.93 464.47 434.93 C 464.72 434.92 464.96 434.90 465.21 434.88 Z" fill="#000000" fill-rule="nonzero" node-id="80" stroke="none" target-height="30.497345" target-width="30.49768" target-x="449.01266" target-y="408.643"></path><path d="M 497.56 386.61 C 497.73 386.59 497.90 386.58 498.06 386.57 C 498.23 386.57 498.40 386.56 498.57 386.56 C 498.74 386.57 498.90 386.57 499.07 386.58 C 499.24 386.59 499.41 386.60 499.57 386.62 C 499.74 386.64 499.91 386.66 500.07 386.69 C 500.24 386.71 500.40 386.74 500.57 386.77 C 500.73 386.81 500.90 386.84 501.06 386.89 C 501.22 386.93 501.38 386.97 501.54 387.02 C 501.70 387.07 501.86 387.13 502.02 387.18 C 502.18 387.24 502.33 387.30 502.49 387.37 C 502.64 387.43 502.80 387.50 502.95 387.57 C 503.10 387.64 503.25 387.72 503.40 387.80 C 503.55 387.88 503.69 387.96 503.84 388.05 C 503.98 388.13 504.12 388.22 504.26 388.32 C 504.40 388.41 504.54 388.51 504.67 388.61 C 504.81 388.71 504.94 388.81 505.07 388.92 C 505.20 389.02 505.33 389.13 505.45 389.25 C 505.58 389.36 505.70 389.47 505.82 389.59 C 505.94 389.71 506.05 389.83 506.17 389.96 C 506.28 390.08 506.39 390.21 506.49 390.34 C 506.60 390.47 506.71 390.60 506.81 390.73 C 506.91 390.87 507.00 391.00 507.10 391.14 C 507.19 391.28 507.28 391.43 507.37 391.57 C 507.45 391.71 507.54 391.86 507.62 392.01 C 507.70 392.15 507.77 392.30 507.85 392.45 C 507.92 392.61 507.99 392.76 508.05 392.91 C 508.12 393.07 508.18 393.22 508.24 393.38 C 508.30 393.54 508.35 393.70 508.40 393.86 C 508.45 394.02 508.49 394.18 508.54 394.34 C 508.58 394.51 508.62 394.67 508.65 394.83 C 508.69 395.00 508.72 395.16 508.74 395.33 C 508.77 395.50 508.79 395.66 508.81 395.83 C 508.82 396.00 508.84 396.16 508.85 396.33 C 508.86 396.50 508.86 396.67 508.87 396.83 C 508.87 397.00 508.87 397.17 508.86 397.34 C 508.85 397.51 508.84 397.67 508.83 397.84 C 508.81 398.01 508.79 398.17 508.77 398.34 C 508.75 398.51 508.72 398.67 508.69 398.84 C 508.66 399.00 508.63 399.17 508.59 399.33 C 508.55 399.49 508.51 399.66 508.46 399.82 C 508.41 399.98 508.36 400.14 508.31 400.30 C 508.25 400.46 508.20 400.61 508.13 400.77 C 508.07 400.93 508.01 401.08 507.94 401.23 C 507.87 401.39 507.79 401.54 507.72 401.69 C 507.64 401.84 507.56 401.98 507.48 402.13 C 507.39 402.27 507.31 402.42 507.21 402.56 C 507.12 402.70 507.03 402.84 506.93 402.98 C 506.83 403.11 506.73 403.25 506.63 403.38 C 506.52 403.51 506.42 403.64 506.31 403.77 C 506.20 403.89 506.08 404.02 505.97 404.14 C 505.85 404.26 505.73 404.38 505.61 404.49 C 505.49 404.61 505.36 404.72 505.23 404.83 C 505.11 404.94 504.98 405.04 504.84 405.15 C 504.71 405.25 504.58 405.35 504.44 405.44 C 504.30 405.54 504.16 405.63 504.02 405.72 C 503.88 405.81 503.73 405.90 503.59 405.98 C 503.44 406.06 503.29 406.14 503.14 406.22 C 502.99 406.29 502.84 406.36 502.69 406.43 C 502.53 406.50 502.38 406.56 502.22 406.62 C 502.06 406.68 501.91 406.74 501.75 406.79 C 501.59 406.85 501.43 406.90 501.26 406.94 C 501.10 406.99 500.94 407.03 500.78 407.06 C 500.61 407.10 500.45 407.13 500.28 407.16 C 500.12 407.19 499.95 407.22 499.78 407.24 C 499.56 407.27 499.33 407.29 499.10 407.30 C 498.87 407.31 498.64 407.32 498.41 407.32 C 498.18 407.32 497.96 407.31 497.73 407.29 C 497.50 407.27 497.27 407.25 497.05 407.22 C 496.82 407.19 496.59 407.15 496.37 407.10 C 496.14 407.05 495.92 407.00 495.70 406.94 C 495.48 406.88 495.26 406.81 495.05 406.73 C 494.83 406.65 494.62 406.57 494.41 406.48 C 494.20 406.39 493.99 406.29 493.78 406.19 C 493.58 406.09 493.38 405.98 493.18 405.86 C 492.99 405.74 492.79 405.62 492.60 405.49 C 492.42 405.36 492.23 405.22 492.05 405.08 C 491.87 404.94 491.70 404.79 491.53 404.64 C 491.36 404.48 491.19 404.32 491.03 404.16 C 490.87 403.99 490.72 403.82 490.57 403.65 C 490.42 403.48 490.28 403.30 490.15 403.11 C 490.01 402.93 489.88 402.74 489.76 402.55 C 489.63 402.35 489.52 402.16 489.40 401.96 C 489.29 401.76 489.19 401.55 489.09 401.35 C 489.00 401.14 488.91 400.93 488.82 400.71 C 488.74 400.50 488.66 400.28 488.59 400.07 C 488.52 399.85 488.46 399.63 488.41 399.41 C 488.35 399.18 488.31 398.96 488.27 398.73 C 488.23 398.51 488.20 398.28 488.17 398.05 C 488.15 397.82 488.13 397.60 488.12 397.37 C 488.11 397.14 488.11 396.91 488.12 396.68 C 488.12 396.45 488.13 396.22 488.15 396.00 C 488.18 395.77 488.20 395.54 488.24 395.31 C 488.28 395.09 488.32 394.86 488.37 394.64 C 488.42 394.42 488.48 394.20 488.54 393.98 C 488.61 393.76 488.68 393.54 488.76 393.32 C 488.84 393.11 488.93 392.90 489.02 392.69 C 489.12 392.48 489.22 392.27 489.32 392.07 C 489.43 391.87 489.55 391.67 489.67 391.48 C 489.79 391.28 489.91 391.09 490.05 390.90 C 490.18 390.72 490.32 390.54 490.47 390.36 C 490.61 390.18 490.76 390.01 490.92 389.84 C 491.07 389.68 491.24 389.51 491.40 389.36 C 491.57 389.20 491.74 389.05 491.92 388.91 C 492.10 388.76 492.28 388.62 492.47 388.49 C 492.65 388.36 492.84 388.23 493.04 388.11 C 493.23 387.99 493.43 387.88 493.63 387.77 C 493.84 387.66 494.04 387.56 494.25 387.47 C 494.46 387.37 494.67 387.29 494.89 387.21 C 495.10 387.13 495.32 387.06 495.54 386.99 C 495.76 386.93 495.98 386.87 496.21 386.82 C 496.43 386.77 496.65 386.72 496.88 386.69 C 497.11 386.65 497.33 386.63 497.56 386.61 Z M 499.79 403.11 C 499.89 403.10 499.98 403.07 500.08 403.05 C 500.17 403.03 500.26 403.00 500.36 402.97 C 500.45 402.95 500.54 402.92 500.63 402.88 C 500.72 402.85 500.81 402.82 500.90 402.78 C 501.00 402.74 501.08 402.71 501.17 402.67 C 501.26 402.63 501.35 402.58 501.43 402.54 C 501.52 402.49 501.60 402.45 501.69 402.40 C 501.77 402.35 501.86 402.30 501.94 402.25 C 502.02 402.19 502.10 402.14 502.18 402.08 C 502.26 402.03 502.34 401.97 502.41 401.91 C 502.49 401.85 502.56 401.79 502.64 401.72 C 502.71 401.66 502.78 401.60 502.85 401.53 C 502.92 401.46 502.99 401.39 503.06 401.32 C 503.13 401.25 503.19 401.18 503.26 401.11 C 503.32 401.04 503.38 400.96 503.44 400.89 C 503.50 400.81 503.56 400.73 503.62 400.65 C 503.67 400.58 503.73 400.50 503.78 400.41 C 503.84 400.33 503.89 400.25 503.94 400.17 C 503.99 400.08 504.03 400.00 504.08 399.91 C 504.12 399.83 504.17 399.74 504.21 399.65 C 504.25 399.56 504.29 399.47 504.32 399.38 C 504.36 399.29 504.40 399.20 504.43 399.11 C 504.46 399.02 504.49 398.93 504.52 398.84 C 504.55 398.74 504.57 398.65 504.60 398.56 C 504.62 398.46 504.64 398.37 504.66 398.27 C 504.68 398.18 504.70 398.08 504.71 397.99 C 504.73 397.89 504.74 397.79 504.75 397.70 C 504.76 397.60 504.77 397.50 504.78 397.41 C 504.79 397.31 504.79 397.21 504.79 397.12 C 504.79 397.02 504.79 396.92 504.79 396.82 C 504.78 396.73 504.78 396.63 504.77 396.54 C 504.76 396.44 504.75 396.34 504.74 396.25 C 504.73 396.15 504.72 396.05 504.70 395.96 C 504.68 395.86 504.66 395.77 504.64 395.67 C 504.62 395.58 504.60 395.48 504.57 395.39 C 504.55 395.30 504.52 395.20 504.49 395.11 C 504.46 395.02 504.43 394.93 504.39 394.83 C 504.36 394.74 504.32 394.65 504.28 394.56 C 504.25 394.48 504.21 394.39 504.16 394.30 C 504.12 394.21 504.08 394.13 504.03 394.04 C 503.98 393.96 503.93 393.87 503.88 393.79 C 503.83 393.71 503.78 393.63 503.73 393.55 C 503.67 393.46 503.62 393.38 503.56 393.31 C 503.50 393.23 503.44 393.15 503.38 393.08 C 503.32 393.00 503.25 392.93 503.19 392.86 C 503.12 392.78 503.06 392.71 502.99 392.65 C 502.92 392.58 502.85 392.51 502.78 392.44 C 502.71 392.38 502.63 392.31 502.56 392.25 C 502.49 392.19 502.41 392.13 502.33 392.07 C 502.25 392.01 502.18 391.96 502.10 391.90 C 502.02 391.85 501.93 391.79 501.85 391.74 C 501.77 391.69 501.69 391.64 501.60 391.59 C 501.52 391.55 501.43 391.50 501.34 391.46 C 501.26 391.42 501.17 391.37 501.08 391.33 C 500.99 391.30 500.90 391.26 500.81 391.22 C 500.72 391.19 500.63 391.16 500.54 391.13 C 500.44 391.10 500.35 391.07 500.26 391.04 C 500.16 391.01 500.07 390.99 499.98 390.97 C 499.88 390.95 499.79 390.93 499.69 390.91 C 499.60 390.89 499.50 390.88 499.40 390.86 C 499.31 390.85 499.21 390.84 499.12 390.83 C 499.02 390.82 498.92 390.82 498.82 390.81 C 498.73 390.81 498.63 390.81 498.53 390.81 C 498.44 390.81 498.34 390.81 498.24 390.82 C 498.10 390.83 497.96 390.84 497.82 390.86 C 497.68 390.87 497.54 390.90 497.40 390.92 C 497.26 390.95 497.12 390.98 496.98 391.02 C 496.85 391.05 496.71 391.09 496.58 391.14 C 496.44 391.19 496.31 391.24 496.18 391.29 C 496.05 391.35 495.92 391.40 495.79 391.47 C 495.67 391.53 495.54 391.60 495.42 391.67 C 495.30 391.74 495.18 391.82 495.06 391.90 C 494.95 391.98 494.83 392.06 494.72 392.15 C 494.61 392.24 494.50 392.33 494.40 392.43 C 494.29 392.52 494.19 392.62 494.09 392.72 C 494.00 392.83 493.90 392.93 493.81 393.04 C 493.72 393.15 493.63 393.26 493.55 393.38 C 493.47 393.49 493.39 393.61 493.31 393.73 C 493.24 393.85 493.17 393.97 493.10 394.10 C 493.03 394.22 492.97 394.35 492.91 394.48 C 492.85 394.61 492.80 394.74 492.75 394.87 C 492.70 395.00 492.66 395.14 492.62 395.27 C 492.58 395.41 492.54 395.55 492.51 395.69 C 492.48 395.82 492.46 395.96 492.44 396.10 C 492.41 396.24 492.40 396.38 492.39 396.52 C 492.38 396.67 492.37 396.81 492.37 396.95 C 492.37 397.09 492.37 397.23 492.38 397.38 C 492.38 397.52 492.40 397.66 492.42 397.80 C 492.43 397.94 492.46 398.08 492.48 398.22 C 492.51 398.36 492.54 398.49 492.58 398.63 C 492.62 398.77 492.66 398.90 492.70 399.04 C 492.75 399.17 492.80 399.30 492.86 399.44 C 492.91 399.57 492.97 399.69 493.03 399.82 C 493.10 399.95 493.17 400.07 493.24 400.19 C 493.31 400.31 493.39 400.43 493.47 400.55 C 493.55 400.67 493.63 400.78 493.72 400.89 C 493.81 401.00 493.90 401.11 494.00 401.21 C 494.09 401.32 494.19 401.42 494.29 401.52 C 494.40 401.62 494.50 401.71 494.61 401.80 C 494.72 401.89 494.83 401.98 494.95 402.06 C 495.06 402.14 495.18 402.22 495.30 402.30 C 495.42 402.37 495.54 402.44 495.67 402.51 C 495.79 402.58 495.92 402.64 496.05 402.69 C 496.18 402.75 496.31 402.81 496.44 402.85 C 496.58 402.90 496.71 402.95 496.85 402.99 C 496.98 403.03 497.12 403.06 497.26 403.09 C 497.40 403.12 497.54 403.15 497.68 403.17 C 497.82 403.19 497.96 403.20 498.10 403.21 C 498.24 403.23 498.38 403.23 498.52 403.23 C 498.67 403.23 498.81 403.23 498.95 403.22 C 499.09 403.21 499.23 403.20 499.37 403.18 C 499.51 403.16 499.65 403.14 499.79 403.11 Z" fill="#000000" fill-rule="nonzero" node-id="82" stroke="none" target-height="20.756653" target-width="20.759003" target-x="488.109" target-y="386.56268"></path><path d="M 262.14 190.76 C 262.27 190.74 262.40 190.73 262.53 190.72 C 262.65 190.71 262.78 190.70 262.91 190.70 C 263.04 190.70 263.17 190.70 263.29 190.70 C 263.42 190.70 263.55 190.71 263.68 190.72 C 263.81 190.73 263.93 190.74 264.06 190.75 C 264.19 190.77 264.31 190.79 264.44 190.81 C 264.57 190.83 264.69 190.85 264.82 190.88 C 264.94 190.91 265.07 190.94 265.19 190.97 C 265.32 191.00 265.44 191.04 265.56 191.08 C 265.68 191.12 265.80 191.16 265.92 191.20 C 266.04 191.25 266.16 191.29 266.28 191.34 C 266.40 191.39 266.51 191.45 266.63 191.50 C 266.75 191.56 266.86 191.62 266.97 191.68 C 267.08 191.74 267.19 191.80 267.31 191.87 C 267.41 191.94 267.52 192.01 267.63 192.08 C 267.73 192.15 267.84 192.22 267.94 192.30 C 268.04 192.38 268.14 192.46 268.24 192.54 C 268.34 192.62 268.44 192.70 268.53 192.79 C 268.63 192.88 268.72 192.96 268.81 193.06 C 268.90 193.15 268.99 193.24 269.08 193.33 C 269.16 193.43 269.25 193.52 269.33 193.62 C 269.41 193.72 269.49 193.82 269.57 193.93 C 269.64 194.03 269.72 194.13 269.79 194.24 C 269.86 194.34 269.93 194.45 270.00 194.56 C 270.06 194.67 270.13 194.78 270.19 194.90 C 270.25 195.01 270.31 195.12 270.36 195.24 C 270.42 195.35 270.47 195.47 270.52 195.59 C 270.57 195.70 270.62 195.82 270.67 195.94 C 270.71 196.06 270.75 196.18 270.79 196.31 C 270.83 196.43 270.87 196.55 270.90 196.67 C 270.93 196.80 270.96 196.92 270.99 197.05 C 271.02 197.17 271.04 197.30 271.06 197.43 C 271.08 197.55 271.10 197.68 271.12 197.81 C 271.13 197.93 271.14 198.06 271.15 198.19 C 271.16 198.32 271.17 198.44 271.17 198.57 C 271.17 198.70 271.17 198.83 271.17 198.96 C 271.16 199.08 271.16 199.21 271.15 199.34 C 271.14 199.47 271.13 199.59 271.11 199.72 C 271.10 199.85 271.08 199.98 271.06 200.10 C 271.03 200.23 271.01 200.35 270.98 200.48 C 270.96 200.60 270.93 200.73 270.89 200.85 C 270.86 200.98 270.82 201.10 270.78 201.22 C 270.74 201.34 270.70 201.46 270.66 201.58 C 270.61 201.70 270.56 201.82 270.51 201.94 C 270.46 202.06 270.41 202.17 270.35 202.29 C 270.30 202.40 270.24 202.52 270.17 202.63 C 270.11 202.74 270.05 202.85 269.98 202.96 C 269.91 203.07 269.84 203.18 269.77 203.28 C 269.70 203.39 269.63 203.49 269.55 203.60 C 269.47 203.70 269.39 203.80 269.31 203.90 C 269.23 204.00 269.14 204.09 269.06 204.19 C 268.97 204.28 268.88 204.37 268.79 204.46 C 268.70 204.55 268.61 204.64 268.51 204.73 C 268.42 204.81 268.32 204.90 268.22 204.98 C 268.12 205.06 268.02 205.14 267.92 205.21 C 267.82 205.29 267.71 205.36 267.61 205.44 C 267.50 205.51 267.39 205.58 267.28 205.64 C 267.17 205.71 267.06 205.77 266.95 205.83 C 266.83 205.89 266.72 205.95 266.61 206.01 C 266.49 206.06 266.37 206.12 266.25 206.17 C 266.14 206.22 266.02 206.26 265.90 206.31 C 265.78 206.35 265.66 206.39 265.53 206.43 C 265.41 206.47 265.29 206.50 265.17 206.54 C 265.04 206.57 264.92 206.60 264.79 206.63 C 264.61 206.66 264.44 206.69 264.26 206.72 C 264.08 206.75 263.90 206.77 263.72 206.78 C 263.54 206.79 263.36 206.80 263.18 206.80 C 263.00 206.80 262.82 206.80 262.64 206.79 C 262.46 206.78 262.28 206.76 262.10 206.74 C 261.92 206.71 261.74 206.68 261.56 206.65 C 261.39 206.61 261.21 206.57 261.04 206.53 C 260.86 206.48 260.69 206.43 260.52 206.37 C 260.35 206.31 260.18 206.25 260.01 206.18 C 259.84 206.11 259.68 206.03 259.52 205.95 C 259.36 205.87 259.20 205.78 259.04 205.69 C 258.89 205.60 258.73 205.50 258.58 205.40 C 258.44 205.30 258.29 205.20 258.15 205.08 C 258.01 204.97 257.87 204.86 257.73 204.74 C 257.60 204.61 257.47 204.49 257.34 204.36 C 257.22 204.23 257.10 204.10 256.98 203.96 C 256.86 203.82 256.75 203.68 256.64 203.53 C 256.54 203.39 256.43 203.24 256.34 203.09 C 256.24 202.94 256.15 202.78 256.06 202.62 C 255.97 202.46 255.89 202.30 255.81 202.14 C 255.74 201.97 255.67 201.81 255.60 201.64 C 255.54 201.47 255.48 201.30 255.43 201.13 C 255.37 200.96 255.33 200.78 255.28 200.60 C 255.24 200.43 255.21 200.25 255.18 200.07 C 255.15 199.90 255.12 199.72 255.11 199.54 C 255.09 199.36 255.08 199.18 255.07 199.00 C 255.07 198.82 255.07 198.64 255.07 198.46 C 255.08 198.28 255.09 198.09 255.11 197.91 C 255.13 197.74 255.15 197.56 255.18 197.38 C 255.21 197.20 255.25 197.02 255.29 196.85 C 255.34 196.67 255.39 196.50 255.44 196.33 C 255.49 196.15 255.55 195.98 255.62 195.82 C 255.69 195.65 255.76 195.48 255.83 195.32 C 255.91 195.15 255.99 194.99 256.08 194.84 C 256.17 194.68 256.26 194.52 256.36 194.37 C 256.46 194.22 256.56 194.07 256.67 193.93 C 256.78 193.78 256.89 193.64 257.01 193.51 C 257.13 193.37 257.25 193.24 257.38 193.11 C 257.50 192.98 257.63 192.85 257.77 192.73 C 257.90 192.61 258.04 192.50 258.18 192.39 C 258.33 192.28 258.47 192.17 258.62 192.07 C 258.77 191.97 258.93 191.87 259.08 191.78 C 259.24 191.69 259.40 191.61 259.56 191.53 C 259.72 191.45 259.89 191.37 260.05 191.30 C 260.22 191.24 260.39 191.17 260.56 191.11 C 260.73 191.06 260.91 191.01 261.08 190.96 C 261.26 190.91 261.43 190.87 261.61 190.84 C 261.79 190.81 261.96 190.78 262.14 190.76 Z" fill="#000000" fill-rule="nonzero" node-id="84" stroke="none" target-height="16.104996" target-width="16.106659" target-x="255.065" target-y="190.69733"></path></svg>